# xmcd
#
# Track frame offsets:
#	150
#	16575
#	33172
#	48922
#	64597
#	80235
#	94914
#	109912
#	126180
#	140693
#
# Disc length: 2078 seconds
#
# Revision: 0
# Processed by: cddbd v1.5.2PL0 Copyright (c) Steve Scherf et al.
# Submitted via: EasyCDDAExtractor 16.0.6.1
#
DISCID=81081c0a
DTITLE=Συλλογικός δίσκος - Ιστορία ρεμπέτικου και λαϊκού 08-1
DYEAR=2007
DGENRE=Ποικίλη
TTITLE0=Τζουανάκος Σταύρος - Εγώ το πλουσιόπαιδο [Μ. Χιώτης-Χρ. Κολοκοτρώνης]
TTITLE1=Μπέλλου Σωτηρία-Ζαγοραίος Σπ.-Τατασσόπουλος Γ. - Γράμμα θα στείλω στο 
TTITLE1=Θεό [Μπάμπης Μπακάλης]
TTITLE2=Μπέλλου Σωτηρία-Μπίνης Τ.-Τσιτσάνης Β. - Απόψε κάνεις μπαμ [Βασίλης Τσ
TTITLE2=ιτσάνης]
TTITLE3=Μπίνης Τάκης-Μπέλλου Σ.-Τατασσόπουλος Γ. - Διώξε με, μάννα, διώξε με [
TTITLE3=Βασίλης Τσιτσάνης]
TTITLE4=Νίνου Μαρίκα - Δώσ' του νάνι, νάνι [Γερ. Κλουβάτος-Χαρ. Βασιλειάδης]
TTITLE5=Καζαντζίδης Στέλιος - Για μπάνιο πάω [Απόστολος Καλδάρας]
TTITLE6=Περπινιάδης Στελλάκης - Άνθρωποι, άνθρωποι [Γ. Παπαϊωάννου-Κώστας Μάνε
TTITLE6=σης]
TTITLE7=Τζουανάκος Σταύρος - Το φτωχομπούζουκο [Μανώλης Χιώτης]
TTITLE8=Αμπατζή Ρίτα - Θέλω νά 'μαι μουρμουράκι [Δημ. Κυριαζόπουλος]
TTITLE9=Καζαντζίδης Στέλιος - Τέτοια κούκλα και τσαχπίνα [Χρ. Κολοκοτρώνης]
EXTD=
EXTT0=
EXTT1=
EXTT2=
EXTT3=
EXTT4=
EXTT5=
EXTT6=
EXTT7=
EXTT8=
EXTT9=
PLAYORDER=
